<svg width="100" height="120" viewBox="0 0 100 120" fill="none" xmlns="http://www.w3.org/2000/svg">
<path d="M94.8199 25.1349C93.5951 23.9057 92.0186 23.1639 90.2967 23.1639H9.70334C7.98144 23.1639 6.40526 23.9057 5.18018 25.1349L50 59.9996L94.8199 25.1349Z" fill="#FFE177"/>
<path d="M94.8198 25.1349L50 59.9996L5.18017 25.1349C3.63222 26.6885 2.64636 29.0219 2.64636 31.6327V88.3669C2.64636 93.044 5.80577 96.8353 9.70333 96.8353H90.297C94.1946 96.8353 97.354 93.044 97.354 88.3669V31.6327C97.354 29.0219 96.3678 26.6885 94.8198 25.1349Z" fill="#FFE177"/>
<path d="M100 88.3669V31.6327C100 25.1633 95.6173 19.9887 90.2967 19.9887H9.70333C4.37814 19.9887 0 25.1692 0 31.6327V88.3669C0 94.7622 4.33474 100.011 9.70333 100.011H90.2967C95.6684 100.011 100 94.7575 100 88.3669ZM70.2489 48.0329L94.2736 29.3446C94.5559 30.05 94.7073 30.8295 94.7073 31.6327V87.2851L70.2489 48.0329ZM5.29272 87.2855V31.6327C5.29272 30.8295 5.4441 30.05 5.72637 29.3446L29.7511 48.0329L5.29272 87.2855ZM50 56.2155L11.5942 26.3396H88.4061L50 56.2155ZM9.70333 93.6596C9.15465 93.6596 8.63102 93.533 8.14585 93.3124L34.2023 51.4957L48.5604 62.6646C49.4365 63.3459 50.5639 63.3454 51.4396 62.6646L65.7977 51.4957L91.8541 93.3124C91.369 93.533 90.8454 93.6596 90.2967 93.6596H9.70333Z" fill="#231F20"/>
</svg>
