<svg width="104" height="94" viewBox="0 0 104 94" fill="none" xmlns="http://www.w3.org/2000/svg">
<path d="M73.2245 36.449L71.102 49.8775H60.4898V83.449H41.3878V51.7959H30.7755V36.449H43.5102V23.0204C43.5102 23.0204 43.5102 9.59183 58.3674 9.59183H71.102V23.0204H62.6122C62.6122 23.0204 60.4898 23.0204 60.4898 24.9388C60.4898 26.8571 60.4898 36.449 60.4898 36.449H73.2245Z" fill="white"/>
<path d="M101.878 5.7551V88.2449C101.878 90.3543 99.9665 92.0816 97.6326 92.0816H6.36735C4.0335 92.0816 2.12245 90.3543 2.12245 88.2449V5.7551C2.12245 3.6447 4.0335 1.91837 6.36735 1.91837H97.6326C99.9665 1.91837 101.878 3.6447 101.878 5.7551ZM71.102 49.8776L73.2245 36.449H60.4898C60.4898 36.449 60.4898 26.8571 60.4898 24.9388C60.4898 23.0204 62.6122 23.0204 62.6122 23.0204H71.102V9.59184H58.3673C43.5102 9.59184 43.5102 23.0204 43.5102 23.0204V36.449H30.7755V51.7959H41.3878V83.449H60.4898V49.8776H71.102Z" fill="#3D5A98"/>
<path d="M97.6327 0H6.36735C2.85639 0 0 2.58174 0 5.7551V88.2449C0 91.4183 2.85639 94 6.36735 94H97.6327C101.144 94 104 91.4183 104 88.2449V5.7551C104 2.58174 101.144 0 97.6327 0ZM99.7551 88.2449C99.7551 89.3027 98.803 90.1633 97.6327 90.1633H6.36735C5.19703 90.1633 4.2449 89.3027 4.2449 88.2449V5.7551C4.2449 4.69731 5.19703 3.83673 6.36735 3.83673H97.6327C98.803 3.83673 99.7551 4.69731 99.7551 5.7551V88.2449Z" fill="#231F20"/>
<path d="M73.2245 34.5306H62.6122V24.9455C62.6284 24.9426 62.6443 24.9403 62.6587 24.9388H71.102C72.2743 24.9388 73.2245 24.0799 73.2245 23.0204V9.59183C73.2245 8.53251 72.2743 7.67346 71.102 7.67346H58.3673C49.6084 7.67346 45.431 11.9014 43.469 15.4482C41.4113 19.1676 41.3878 22.8648 41.3878 23.0204V34.5306H30.7755C29.6033 34.5306 28.6531 35.3895 28.6531 36.449V51.7959C28.6531 52.8554 29.6033 53.7143 30.7755 53.7143H39.2653V83.449C39.2653 84.5085 40.2155 85.3673 41.3878 85.3673H60.4898C61.662 85.3673 62.6122 84.5085 62.6122 83.449V51.7959H71.102C72.1584 51.7959 73.0538 51.094 73.203 50.1488L75.3255 36.7202C75.4125 36.1697 75.231 35.6122 74.8278 35.1921C74.4247 34.7719 73.8398 34.5306 73.2245 34.5306ZM69.2612 47.9592H60.4898C59.3176 47.9592 58.3673 48.818 58.3673 49.8775V81.5306H43.5102V51.7959C43.5102 50.7366 42.56 49.8775 41.3878 49.8775H32.898V38.3673H43.5102C44.6824 38.3673 45.6327 37.5085 45.6327 36.449V23.0263C45.6329 22.996 45.6728 19.9723 47.3257 17.0566C49.4127 13.3764 53.1277 11.5102 58.3673 11.5102H68.9796V21.102H62.6122C60.5545 21.102 58.3673 22.4466 58.3673 24.9388V36.449C58.3673 37.5085 59.3176 38.3673 60.4898 38.3673H70.7773L69.2612 47.9592Z" fill="#231F20"/>
</svg>
