<svg width="300" height="46" viewBox="0 0 300 46" fill="none" xmlns="http://www.w3.org/2000/svg">
<path d="M13.131 35.432C10.667 35.432 8.427 34.968 6.411 34.04C4.427 33.112 2.875 31.832 1.755 30.2C0.635 28.568 0.075 26.728 0.075 24.68C0.075 23.24 0.683 22.248 1.899 21.704C3.147 21.128 4.907 20.84 7.179 20.84C7.083 21.352 7.035 22.12 7.035 23.144C7.035 25.16 7.547 26.696 8.571 27.752C9.595 28.776 11.115 29.288 13.131 29.288C15.115 29.288 16.619 28.712 17.643 27.56C18.699 26.408 19.227 24.744 19.227 22.568V7.496H14.667C13.067 7.496 11.867 7 11.067 6.008C10.299 4.984 9.915 3.448 9.915 1.4H22.827C23.787 1.4 24.603 1.72 25.275 2.36C25.947 2.968 26.283 3.72 26.283 4.616V22.568C26.283 25.032 25.707 27.24 24.555 29.192C23.435 31.144 21.867 32.68 19.851 33.8C17.867 34.888 15.627 35.432 13.131 35.432ZM53.0715 30.44C53.0715 32.04 52.5435 33.272 51.4875 34.136C50.4315 35 48.8635 35.432 46.7835 35.432V32.6C47.2635 32.088 47.6635 31.544 47.9835 30.968L47.6475 30.776C45.6315 33.88 42.9115 35.432 39.4875 35.432C37.8875 35.432 36.4315 35.064 35.1195 34.328C33.8075 33.56 32.7675 32.504 31.9995 31.16C31.2635 29.784 30.8955 28.232 30.8955 26.504V14.408C30.8955 13.032 31.4235 12.056 32.4795 11.48C33.5675 10.872 35.2315 10.568 37.4715 10.568V26.024C37.4715 27.176 37.8235 28.088 38.5275 28.76C39.2315 29.432 40.2555 29.768 41.5995 29.768C43.1355 29.768 44.3355 29.288 45.1995 28.328C46.0635 27.336 46.4955 26.072 46.4955 24.536V14.408C46.4955 13.032 47.0235 12.056 48.0795 11.48C49.1675 10.872 50.8315 10.568 53.0715 10.568V30.44ZM69.1264 35.432C67.1424 35.432 65.3024 35.032 63.6064 34.232C61.9424 33.432 60.6144 32.344 59.6224 30.968C58.6304 29.592 58.1344 28.056 58.1344 26.36V20.216C58.1344 18.424 58.6304 16.792 59.6224 15.32C60.6464 13.816 62.0064 12.648 63.7024 11.816C65.3984 10.984 67.2224 10.568 69.1744 10.568C71.0944 10.568 72.8544 10.968 74.4544 11.768C76.0864 12.536 77.3664 13.64 78.2944 15.08C79.2224 16.488 79.6864 18.088 79.6864 19.88V22.472C79.6864 23.24 79.3984 23.896 78.8224 24.44C78.2464 24.952 77.5104 25.208 76.6144 25.208H64.5184V25.88C64.5184 27.16 64.9024 28.216 65.6704 29.048C66.4704 29.848 67.6384 30.248 69.1744 30.248C70.6784 30.248 71.7824 29.928 72.4864 29.288C73.1904 28.616 73.5424 27.784 73.5424 26.792C74.1824 26.728 74.6624 26.696 74.9824 26.696C76.2944 26.696 77.3024 26.968 78.0064 27.512C78.7104 28.056 79.0624 28.856 79.0624 29.912C79.0624 30.776 78.6304 31.64 77.7664 32.504C76.9024 33.368 75.7024 34.072 74.1664 34.616C72.6624 35.16 70.9824 35.432 69.1264 35.432ZM73.7344 20.552V19.88C73.7344 18.6 73.3024 17.592 72.4384 16.856C71.6064 16.088 70.5024 15.704 69.1264 15.704C67.7504 15.704 66.6304 16.088 65.7664 16.856C64.9344 17.592 64.5184 18.6 64.5184 19.88V20.552H73.7344ZM106.239 33.464C105.535 34.776 104.399 35.432 102.831 35.432C102.159 35.432 101.567 35.288 101.055 35C100.543 34.68 100.063 34.2 99.615 33.56L93.711 25.112L90.543 28.088V31.592C90.543 32.968 89.999 33.96 88.911 34.568C87.823 35.144 86.191 35.432 84.015 35.432V5.96C84.015 2.632 86.223 0.967998 90.639 0.967998V20.696L101.439 10.568C103.263 11.976 104.175 13.096 104.175 13.928C104.175 14.44 104.031 14.904 103.743 15.32C103.487 15.704 103.055 16.184 102.447 16.76L97.503 21.464L106.239 33.464ZM116.289 8.744C115.073 8.744 114.049 8.392 113.217 7.688C112.417 6.952 112.017 6.008 112.017 4.856C112.017 3.704 112.417 2.776 113.217 2.072C114.049 1.336 115.073 0.967998 116.289 0.967998C117.505 0.967998 118.513 1.336 119.313 2.072C120.145 2.776 120.561 3.704 120.561 4.856C120.561 6.008 120.145 6.952 119.313 7.688C118.513 8.392 117.505 8.744 116.289 8.744ZM110.481 45.032C108.529 45.032 106.929 44.568 105.681 43.64C104.433 42.712 103.809 41.56 103.809 40.184C103.809 39.576 103.937 39.048 104.193 38.6C104.449 38.152 104.801 37.816 105.249 37.592C106.241 38.776 107.633 39.368 109.425 39.368C110.609 39.368 111.489 39.048 112.065 38.408C112.673 37.8 112.977 36.952 112.977 35.864V14.408C112.977 13.032 113.521 12.056 114.609 11.48C115.697 10.872 117.345 10.568 119.553 10.568V35.912C119.553 37.608 119.169 39.144 118.401 40.52C117.633 41.928 116.561 43.032 115.185 43.832C113.809 44.632 112.241 45.032 110.481 45.032ZM147.572 30.44C147.572 32.04 147.044 33.272 145.988 34.136C144.932 35 143.364 35.432 141.284 35.432V32.6C141.764 32.088 142.164 31.544 142.484 30.968L142.148 30.776C140.132 33.88 137.412 35.432 133.988 35.432C132.388 35.432 130.932 35.064 129.62 34.328C128.308 33.56 127.268 32.504 126.5 31.16C125.764 29.784 125.396 28.232 125.396 26.504V14.408C125.396 13.032 125.924 12.056 126.98 11.48C128.068 10.872 129.732 10.568 131.972 10.568V26.024C131.972 27.176 132.324 28.088 133.028 28.76C133.732 29.432 134.756 29.768 136.1 29.768C137.636 29.768 138.836 29.288 139.7 28.328C140.564 27.336 140.996 26.072 140.996 24.536V14.408C140.996 13.032 141.524 12.056 142.58 11.48C143.668 10.872 145.332 10.568 147.572 10.568V30.44ZM163.626 35.432C161.642 35.432 159.802 35.032 158.106 34.232C156.442 33.432 155.114 32.344 154.122 30.968C153.13 29.592 152.634 28.056 152.634 26.36V20.216C152.634 18.424 153.13 16.792 154.122 15.32C155.146 13.816 156.506 12.648 158.202 11.816C159.898 10.984 161.722 10.568 163.674 10.568C165.594 10.568 167.354 10.968 168.954 11.768C170.586 12.536 171.866 13.64 172.794 15.08C173.722 16.488 174.186 18.088 174.186 19.88V22.472C174.186 23.24 173.898 23.896 173.322 24.44C172.746 24.952 172.01 25.208 171.114 25.208H159.018V25.88C159.018 27.16 159.402 28.216 160.17 29.048C160.97 29.848 162.138 30.248 163.674 30.248C165.178 30.248 166.282 29.928 166.986 29.288C167.69 28.616 168.042 27.784 168.042 26.792C168.682 26.728 169.162 26.696 169.482 26.696C170.794 26.696 171.802 26.968 172.506 27.512C173.21 28.056 173.562 28.856 173.562 29.912C173.562 30.776 173.13 31.64 172.266 32.504C171.402 33.368 170.202 34.072 168.666 34.616C167.162 35.16 165.482 35.432 163.626 35.432ZM168.234 20.552V19.88C168.234 18.6 167.802 17.592 166.938 16.856C166.106 16.088 165.002 15.704 163.626 15.704C162.25 15.704 161.13 16.088 160.266 16.856C159.434 17.592 159.018 18.6 159.018 19.88V20.552H168.234ZM200.739 33.464C200.035 34.776 198.899 35.432 197.331 35.432C196.659 35.432 196.067 35.288 195.555 35C195.043 34.68 194.563 34.2 194.115 33.56L188.211 25.112L185.043 28.088V31.592C185.043 32.968 184.499 33.96 183.411 34.568C182.323 35.144 180.691 35.432 178.515 35.432V5.96C178.515 2.632 180.723 0.967998 185.139 0.967998V20.696L195.939 10.568C197.763 11.976 198.675 13.096 198.675 13.928C198.675 14.44 198.531 14.904 198.243 15.32C197.987 15.704 197.555 16.184 196.947 16.76L192.003 21.464L200.739 33.464ZM204.812 6.056C204.812 4.392 205.404 3.128 206.588 2.264C207.804 1.4 209.564 0.967998 211.868 0.967998V15.032H225.356V6.056C225.356 4.392 225.948 3.128 227.132 2.264C228.348 1.4 230.108 0.967998 232.412 0.967998V30.344C232.412 32.008 231.804 33.272 230.588 34.136C229.404 35 227.66 35.432 225.356 35.432V21.128H211.868V30.344C211.868 32.008 211.26 33.272 210.044 34.136C208.86 35 207.116 35.432 204.812 35.432V6.056ZM251.831 35.432C249.079 35.432 246.599 34.888 244.391 33.8C242.215 32.68 240.503 31.128 239.255 29.144C238.039 27.16 237.431 24.936 237.431 22.472V6.056C237.431 4.392 238.023 3.128 239.207 2.264C240.423 1.4 242.183 0.967998 244.487 0.967998V22.472C244.487 24.552 245.143 26.216 246.455 27.464C247.799 28.68 249.591 29.288 251.831 29.288C254.071 29.288 255.847 28.68 257.159 27.464C258.503 26.216 259.175 24.552 259.175 22.472V6.056C259.175 4.392 259.767 3.128 260.951 2.264C262.167 1.4 263.927 0.967998 266.231 0.967998V22.472C266.231 24.936 265.607 27.16 264.359 29.144C263.143 31.128 261.431 32.68 259.223 33.8C257.047 34.888 254.583 35.432 251.831 35.432ZM274.833 35C273.873 35 273.041 34.696 272.337 34.088C271.633 33.448 271.281 32.68 271.281 31.784V4.616C271.281 3.72 271.617 2.968 272.289 2.36C272.993 1.72 273.841 1.4 274.833 1.4H287.553C290.753 1.4 293.297 2.264 295.185 3.992C297.105 5.72 298.065 8.04 298.065 10.952C298.065 12.264 297.697 13.528 296.961 14.744C296.257 15.928 295.313 16.872 294.129 17.576V17.768C295.761 18.344 297.057 19.288 298.017 20.6C298.977 21.912 299.457 23.368 299.457 24.968C299.457 26.92 298.993 28.664 298.065 30.2C297.137 31.704 295.841 32.888 294.177 33.752C292.513 34.584 290.609 35 288.465 35H274.833ZM287.457 15.272C288.449 15.272 289.281 14.888 289.953 14.12C290.657 13.32 291.009 12.36 291.009 11.24C291.009 10.024 290.689 9.08 290.049 8.408C289.409 7.704 288.545 7.352 287.457 7.352H278.145V15.272H287.457ZM288.417 29.048C289.633 29.048 290.593 28.696 291.297 27.992C292.033 27.256 292.401 26.28 292.401 25.064C292.401 23.816 292.049 22.856 291.345 22.184C290.641 21.48 289.665 21.128 288.417 21.128H278.145V29.048H288.417Z" fill="black"/>
</svg>
