<svg width="114" height="120" viewBox="0 0 114 120" fill="none" xmlns="http://www.w3.org/2000/svg">
<path d="M111.673 44.0816V75.9184C111.673 89.4355 101.249 100.408 88.4082 100.408H25.5918C12.7506 100.408 2.32654 89.4355 2.32654 75.9184V44.0816C2.32654 30.5635 12.7506 19.5918 25.5918 19.5918H88.4082C101.249 19.5918 111.673 30.5635 111.673 44.0816Z" fill="#EA4640"/>
<path d="M74.449 60L46.5306 72.2449V47.7551L74.449 60Z" fill="white"/>
<path d="M88.4082 17.1429H25.5918C11.4805 17.1429 0 29.2276 0 44.0816V75.9184C0 90.7724 11.4805 102.857 25.5918 102.857H88.4082C102.52 102.857 114 90.7724 114 75.9184V44.0816C114 29.2276 102.52 17.1429 88.4082 17.1429ZM109.347 75.9184C109.347 88.0717 99.9538 97.9592 88.4082 97.9592H25.5918C14.0462 97.9592 4.65306 88.0717 4.65306 75.9184V44.0816C4.65306 31.9283 14.0462 22.0408 25.5918 22.0408H88.4082C99.9538 22.0408 109.347 31.9283 109.347 44.0816V75.9184Z" fill="#231F20"/>
<path d="M75.3438 57.7393L47.4254 45.4944C46.7077 45.1795 45.8873 45.263 45.2401 45.7175C44.5929 46.1716 44.2041 46.9364 44.2041 47.7551V72.2449C44.2041 73.0638 44.5929 73.8284 45.2401 74.2824C45.6279 74.5548 46.0779 74.6939 46.5309 74.6939C46.8335 74.6939 47.1376 74.6317 47.4254 74.5055L75.3438 62.2606C76.2109 61.8803 76.7755 60.9886 76.7755 60C76.7755 59.0113 76.2106 58.1197 75.3438 57.7393ZM48.8571 68.5714V51.4286L68.4 60L48.8571 68.5714Z" fill="#231F20"/>
</svg>
